<svg width="37" height="49" viewBox="0 0 37 49" fill="none" xmlns="http://www.w3.org/2000/svg">
<path d="M18.9595 0C8.92822 0 0.959473 8.15625 0.959473 18C0.959473 24.75 3.11572 26.8125 15.1157 45.9375C16.897 48.75 20.9282 48.75 22.7095 45.9375C34.7095 26.8125 36.9595 24.75 36.9595 18C36.9595 8.0625 28.8032 0 18.9595 0ZM18.9595 43.5C6.95947 24.375 5.45947 23.1562 5.45947 18C5.45947 10.5938 11.4595 4.5 18.9595 4.5C26.3657 4.5 32.4595 10.5938 32.4595 18C32.4595 23.1562 30.9595 24.1875 18.9595 43.5ZM11.4595 18C11.4595 22.2188 14.7407 25.5 18.9595 25.5C23.0845 25.5 26.4595 22.2188 26.4595 18C26.4595 13.875 23.0845 10.5 18.9595 10.5C14.7407 10.5 11.4595 13.875 11.4595 18Z" fill="black"/>
</svg>
