<svg width="49" height="36" viewBox="0 0 49 36" fill="none" xmlns="http://www.w3.org/2000/svg">
<path d="M43.5405 0H4.54053C2.00928 0 0.0405273 2.0625 0.0405273 4.5V31.5C0.0405273 34.0312 2.00928 36 4.54053 36H43.5405C45.978 36 48.0405 34.0312 48.0405 31.5V4.5C48.0405 2.0625 45.978 0 43.5405 0ZM43.5405 4.5V8.34375C41.3843 10.125 38.0093 12.75 30.8843 18.375C29.2905 19.5938 26.1968 22.5938 24.0405 22.5C21.7905 22.5938 18.6968 19.5938 17.103 18.375C9.97803 12.75 6.60303 10.125 4.54053 8.34375V4.5H43.5405ZM4.54053 31.5V14.1562C6.60303 15.8438 9.69678 18.2812 14.2905 21.9375C16.353 23.5312 20.0093 27.0938 24.0405 27C27.978 27.0938 31.5405 23.5312 33.6968 21.9375C38.2905 18.2812 41.3843 15.8438 43.5405 14.1562V31.5H4.54053Z" fill="black"/>
</svg>
