<svg width="49" height="49" viewBox="0 0 49 49" fill="none" xmlns="http://www.w3.org/2000/svg">
<path d="M45.6115 3.15625L36.799 1.1875C34.7365 0.71875 32.674 1.75 31.924 3.625L27.799 13.1875C27.049 14.875 27.5178 16.9375 29.0178 18.1562L32.7678 21.25C30.1428 26.125 26.0178 30.1562 21.1428 32.875L18.049 29.125C16.8303 27.625 14.7678 27.1562 13.0803 27.9062L3.51776 31.9375C1.64276 32.7812 0.611511 34.8438 1.08026 36.9062L3.04901 45.7188C3.51776 47.6875 5.29901 49 7.26776 49C30.2365 49 48.9865 30.4375 48.9865 7.375C48.9865 5.40625 47.5803 3.625 45.6115 3.15625ZM7.45526 44.5L5.48651 36.0625L14.674 32.125L19.924 38.5C29.2053 34.0938 33.9865 29.3125 38.3928 20.0312L32.0178 14.7812L35.9553 5.59375L44.4865 7.5625C44.3928 27.9062 27.799 44.4062 7.45526 44.5Z" fill="black"/>
</svg>
