<svg width="48" height="48" viewBox="0 0 48 48" fill="none" xmlns="http://www.w3.org/2000/svg">
<path d="M24.0135 0.75C11.1698 0.75 0.76355 11.1562 0.76355 24C0.76355 36.8438 11.1698 47.25 24.0135 47.25C36.8573 47.25 47.2635 36.8438 47.2635 24C47.2635 11.1562 36.8573 0.75 24.0135 0.75ZM24.0135 42.75C13.6073 42.75 5.26355 34.4062 5.26355 24C5.26355 13.6875 13.6073 5.25 24.0135 5.25C34.326 5.25 42.7635 13.6875 42.7635 24C42.7635 34.4062 34.326 42.75 24.0135 42.75ZM29.7323 33C30.2948 33.375 30.951 33.2812 31.326 32.7188L33.1073 30.375C33.4823 29.8125 33.3885 29.1562 32.826 28.7812L26.6385 24.1875V10.875C26.6385 10.3125 26.076 9.75 25.5135 9.75H22.5135C21.8573 9.75 21.3885 10.3125 21.3885 10.875V26.3438C21.3885 26.625 21.4823 27 21.7635 27.1875L29.7323 33Z" fill="black"/>
</svg>
